<svg xmlns="http://www.w3.org/2000/svg" version="1.1" xmlns:xlink="http://www.w3.org/1999/xlink" xmlns:svgjs="http://svgjs.dev/svgjs" width="1440" height="560" preserveAspectRatio="none" viewBox="0 0 1440 560"><g mask="url(&quot;#SvgjsMask1277&quot;)" fill="none"><rect width="1440" height="560" x="0" y="0" fill="url(&quot;#SvgjsLinearGradient1278&quot;)"></rect><path d="M498 213L497 -28" stroke-width="6" stroke="url(&quot;#SvgjsLinearGradient1279&quot;)" stroke-linecap="round" class="Down"></path><path d="M337 257L336 64" stroke-width="10" stroke="url(&quot;#SvgjsLinearGradient1279&quot;)" stroke-linecap="round" class="Down"></path><path d="M598 79L597 280" stroke-width="6" stroke="url(&quot;#SvgjsLinearGradient1280&quot;)" stroke-linecap="round" class="Up"></path><path d="M976 185L975 -104" stroke-width="10" stroke="url(&quot;#SvgjsLinearGradient1280&quot;)" stroke-linecap="round" class="Up"></path><path d="M829 94L828 248" stroke-width="8" stroke="url(&quot;#SvgjsLinearGradient1279&quot;)" stroke-linecap="round" class="Down"></path><path d="M473 237L472 571" stroke-width="10" stroke="url(&quot;#SvgjsLinearGradient1279&quot;)" stroke-linecap="round" class="Down"></path><path d="M305 139L304 346" stroke-width="10" stroke="url(&quot;#SvgjsLinearGradient1280&quot;)" stroke-linecap="round" class="Up"></path><path d="M46 283L45 -74" stroke-width="8" stroke="url(&quot;#SvgjsLinearGradient1279&quot;)" stroke-linecap="round" class="Down"></path><path d="M746 403L745 711" stroke-width="6" stroke="url(&quot;#SvgjsLinearGradient1279&quot;)" stroke-linecap="round" class="Down"></path><path d="M1418 141L1417 317" stroke-width="8" stroke="url(&quot;#SvgjsLinearGradient1280&quot;)" stroke-linecap="round" class="Up"></path><path d="M839 507L838 129" stroke-width="8" stroke="url(&quot;#SvgjsLinearGradient1279&quot;)" stroke-linecap="round" class="Down"></path><path d="M1320 91L1319 -181" stroke-width="10" stroke="url(&quot;#SvgjsLinearGradient1280&quot;)" stroke-linecap="round" class="Up"></path><path d="M1127 124L1126 467" stroke-width="8" stroke="url(&quot;#SvgjsLinearGradient1280&quot;)" stroke-linecap="round" class="Up"></path><path d="M335 58L334 -297" stroke-width="6" stroke="url(&quot;#SvgjsLinearGradient1280&quot;)" stroke-linecap="round" class="Up"></path><path d="M1379 307L1378 552" stroke-width="8" stroke="url(&quot;#SvgjsLinearGradient1280&quot;)" stroke-linecap="round" class="Up"></path><path d="M529 336L528 742" stroke-width="10" stroke="url(&quot;#SvgjsLinearGradient1279&quot;)" stroke-linecap="round" class="Down"></path><path d="M195 171L194 428" stroke-width="10" stroke="url(&quot;#SvgjsLinearGradient1280&quot;)" stroke-linecap="round" class="Up"></path><path d="M1296 381L1295 21" stroke-width="8" stroke="url(&quot;#SvgjsLinearGradient1279&quot;)" stroke-linecap="round" class="Down"></path><path d="M525 200L524 364" stroke-width="8" stroke="url(&quot;#SvgjsLinearGradient1279&quot;)" stroke-linecap="round" class="Down"></path><path d="M117 318L116 176" stroke-width="10" stroke="url(&quot;#SvgjsLinearGradient1280&quot;)" stroke-linecap="round" class="Up"></path><path d="M1370 78L1369 -305" stroke-width="8" stroke="url(&quot;#SvgjsLinearGradient1279&quot;)" stroke-linecap="round" class="Down"></path><path d="M1390 246L1389 655" stroke-width="10" stroke="url(&quot;#SvgjsLinearGradient1280&quot;)" stroke-linecap="round" class="Up"></path><path d="M1433 342L1432 570" stroke-width="8" stroke="url(&quot;#SvgjsLinearGradient1279&quot;)" stroke-linecap="round" class="Down"></path><path d="M326 50L325 416" stroke-width="8" stroke="url(&quot;#SvgjsLinearGradient1280&quot;)" stroke-linecap="round" class="Up"></path><path d="M390 525L389 750" stroke-width="6" stroke="url(&quot;#SvgjsLinearGradient1280&quot;)" stroke-linecap="round" class="Up"></path><path d="M1289 482L1288 869" stroke-width="6" stroke="url(&quot;#SvgjsLinearGradient1279&quot;)" stroke-linecap="round" class="Down"></path><path d="M47 342L46 564" stroke-width="8" stroke="url(&quot;#SvgjsLinearGradient1279&quot;)" stroke-linecap="round" class="Down"></path><path d="M200 75L199 279" stroke-width="6" stroke="url(&quot;#SvgjsLinearGradient1279&quot;)" stroke-linecap="round" class="Down"></path><path d="M792 382L791 114" stroke-width="10" stroke="url(&quot;#SvgjsLinearGradient1280&quot;)" stroke-linecap="round" class="Up"></path><path d="M58 210L57 -201" stroke-width="6" stroke="url(&quot;#SvgjsLinearGradient1279&quot;)" stroke-linecap="round" class="Down"></path><path d="M205 89L204 -327" stroke-width="8" stroke="url(&quot;#SvgjsLinearGradient1280&quot;)" stroke-linecap="round" class="Up"></path><path d="M733 358L732 166" stroke-width="6" stroke="url(&quot;#SvgjsLinearGradient1280&quot;)" stroke-linecap="round" class="Up"></path><path d="M520 462L519 644" stroke-width="8" stroke="url(&quot;#SvgjsLinearGradient1279&quot;)" stroke-linecap="round" class="Down"></path><path d="M1361 428L1360 769" stroke-width="6" stroke="url(&quot;#SvgjsLinearGradient1280&quot;)" stroke-linecap="round" class="Up"></path><path d="M370 252L369 -144" stroke-width="6" stroke="url(&quot;#SvgjsLinearGradient1280&quot;)" stroke-linecap="round" class="Up"></path><path d="M1089 77L1088 348" stroke-width="6" stroke="url(&quot;#SvgjsLinearGradient1280&quot;)" stroke-linecap="round" class="Up"></path></g><defs><mask id="SvgjsMask1277"><rect width="1440" height="560" fill="#ffffff"></rect></mask><linearGradient x1="50%" y1="0%" x2="50%" y2="100%" gradientUnits="userSpaceOnUse" id="SvgjsLinearGradient1278"><stop stop-color="#0e2a47" offset="0"></stop><stop stop-color="rgba(38, 117, 54, 1)" offset="1"></stop></linearGradient><linearGradient x1="0%" y1="0%" x2="0%" y2="100%" id="SvgjsLinearGradient1279"><stop stop-color="rgba(122, 142, 163, 0)" offset="0"></stop><stop stop-color="rgba(122, 142, 163, 1)" offset="1"></stop></linearGradient><linearGradient x1="0%" y1="100%" x2="0%" y2="0%" id="SvgjsLinearGradient1280"><stop stop-color="rgba(122, 142, 163, 0)" offset="0"></stop><stop stop-color="rgba(122, 142, 163, 1)" offset="1"></stop></linearGradient></defs></svg>